<?xml version="1.0" encoding="utf-8"?>
<!-- Generator: Adobe Illustrator 19.0.0, SVG Export Plug-In . SVG Version: 6.00 Build 0)  -->
<svg version="1.1" id="图层_1" xmlns="http://www.w3.org/2000/svg" xmlns:xlink="http://www.w3.org/1999/xlink" x="0px" y="0px"
	 viewBox="0 0 141.7 141.7" style="enable-background:new 0 0 141.7 141.7;" xml:space="preserve">
<style type="text/css">
	.st0{fill:none;stroke:#000000;stroke-width:2.52;stroke-miterlimit:10;}
</style>
<path id="XMLID_1_" class="st0" d="M39,28.7c0-7.8,6.4-14.2,14.2-14.2s14.2,6.3,14.2,14.2c0,7.8-6.4,14.2-14.2,14.2S39,36.6,39,28.7
	z"/>
<line id="XMLID_2_" class="st0" x1="53.2" y1="42.9" x2="53.6" y2="73.1"/>
<line id="XMLID_3_" class="st0" x1="43.2" y1="38.8" x2="22.9" y2="73.2"/>
<path id="XMLID_4_" d="M63.8,47.2l-0.6-8.4l7.1,4.6L63.8,47.2z M82.8,69.7l1.7,2.9l-2.2,1.3l-1.7-2.9L82.8,69.7z M77.7,61l3.8,6.5
	l-2.2,1.3l-3.8-6.5L77.7,61z M72.6,52.3l3.8,6.5l-2.2,1.3l-3.8-6.5L72.6,52.3z M67.5,43.6l3.8,6.5l-2.2,1.3l-3.8-6.5L67.5,43.6z"/>
<circle id="XMLID_10_" class="st0" cx="93.2" cy="83.2" r="14.2"/>
<line id="XMLID_11_" class="st0" x1="84" y1="93.2" x2="63.7" y2="127.6"/>
<line id="XMLID_12_" class="st0" x1="103.3" y1="93.2" x2="119.8" y2="127.6"/>
</svg>
