<?xml version="1.0" encoding="utf-8"?>
<!-- Generator: Adobe Illustrator 19.0.0, SVG Export Plug-In . SVG Version: 6.00 Build 0)  -->
<svg version="1.1" id="图层_1" xmlns="http://www.w3.org/2000/svg" xmlns:xlink="http://www.w3.org/1999/xlink" x="0px" y="0px"
	 viewBox="0 0 141.7 141.7" style="enable-background:new 0 0 141.7 141.7;" xml:space="preserve">
<style type="text/css">
	.st0{fill:none;stroke:#000000;stroke-width:2.52;stroke-miterlimit:10;}
	.st1{fill:none;stroke:#000000;stroke-width:2.52;stroke-miterlimit:10;stroke-dasharray:7.56,2.52;}
</style>
<path id="XMLID_1_" d="M61.3,47.3l3.1-7.9l-8.1,2.2L61.3,47.3z M36.4,62.9l-5.6,5l1.7,1.9l5.6-5L36.4,62.9z M43.9,56.2l-5.6,5
	l1.7,1.9l5.6-5L43.9,56.2z M51.4,49.5l-5.6,5l1.7,1.9l5.6-5L51.4,49.5z M58.9,42.7l-5.6,5l1.7,1.9l5.6-5L58.9,42.7z"/>
<circle id="XMLID_7_" class="st0" cx="30.7" cy="83.9" r="14.2"/>
<line id="XMLID_8_" class="st0" x1="21.5" y1="93.8" x2="1.2" y2="128.2"/>
<line id="XMLID_9_" class="st0" x1="40.8" y1="93.8" x2="57.3" y2="128.2"/>
<path id="XMLID_10_" d="M86.8,47.6l-2.4-8.1l7.9,3L86.8,47.6z M110.3,65.4l3.2,3.4l-1.8,1.7l-3.2-3.4L110.3,65.4z M103.4,58l5.1,5.5
	l-1.8,1.7l-5.2-5.5L103.4,58z M96.5,50.6l5.1,5.5l-1.9,1.7l-5.1-5.5L96.5,50.6z M89.7,43.2l5.1,5.5L93,50.5L87.8,45L89.7,43.2z"/>
<path id="XMLID_16_" class="st0" d="M98.4,83.9c0-7.8,6.4-14.2,14.2-14.2c7.8,0,14.2,6.3,14.2,14.2c0,7.8-6.4,14.2-14.2,14.2
	C104.7,98,98.4,91.7,98.4,83.9z"/>
<line id="XMLID_17_" class="st0" x1="103.3" y1="93.8" x2="83" y2="128.2"/>
<line id="XMLID_18_" class="st0" x1="122.6" y1="93.8" x2="139.2" y2="128.2"/>
<path id="XMLID_19_" class="st1" d="M60.3,29.5c0-7.9,6.3-14.2,14.2-14.2c7.8,0,14.2,6.4,14.2,14.2s-6.3,14.2-14.2,14.2
	C66.7,43.7,60.3,37.3,60.3,29.5z"/>
</svg>
